<svg width="44" height="44" viewBox="0 0 44 44" fill="none" xmlns="http://www.w3.org/2000/svg">
<path d="M22 0C9.85565 0 0 9.85565 0 22C0 34.1444 9.85565 44 22 44C34.1444 44 44 34.1444 44 22C44 9.85565 34.1444 0 22 0ZM30.9331 32.3702C30.5605 32.3702 30.3298 32.2548 29.9839 32.0508C24.4484 28.7153 18.0081 28.5734 11.6476 29.8774C11.3016 29.9661 10.8492 30.1081 10.5919 30.1081C9.73145 30.1081 9.19032 29.425 9.19032 28.7065C9.19032 27.7927 9.73145 27.3581 10.3968 27.2161C17.6621 25.6105 25.0871 25.7524 31.421 29.5403C31.9621 29.8863 32.2814 30.1968 32.2814 31.004C32.2814 31.8113 31.6516 32.3702 30.9331 32.3702ZM33.3194 26.5508C32.8581 26.5508 32.5476 26.3468 32.2282 26.1782C26.6839 22.896 18.4161 21.5742 11.0621 23.5702C10.6363 23.6855 10.4056 23.8008 10.0065 23.8008C9.05726 23.8008 8.28548 23.029 8.28548 22.0798C8.28548 21.1306 8.74677 20.5008 9.66048 20.2435C12.1266 19.5516 14.646 19.0371 18.3363 19.0371C24.0935 19.0371 29.6556 20.4653 34.0379 23.0734C34.7565 23.4992 35.0403 24.0492 35.0403 24.821C35.0315 25.779 34.2863 26.5508 33.3194 26.5508ZM36.0694 19.7911C35.6081 19.7911 35.3242 19.6758 34.925 19.4452C28.6089 15.675 17.3161 14.7702 10.0065 16.8105C9.6871 16.8992 9.2879 17.0411 8.8621 17.0411C7.69113 17.0411 6.79516 16.1274 6.79516 14.9476C6.79516 13.7411 7.54032 13.0581 8.33871 12.8274C11.4613 11.9137 14.9565 11.479 18.7621 11.479C25.2379 11.479 32.0242 12.8274 36.9831 15.7194C37.675 16.1185 38.1274 16.6685 38.1274 17.7242C38.1274 18.9306 37.1516 19.7911 36.0694 19.7911Z" fill="#1ED760"/>
</svg>
